<svg version="1.0" xmlns="http://www.w3.org/2000/svg"
 width="1280.000000pt" height="1252.000000pt" viewBox="0 0 1280.000000 1252.000000"
 preserveAspectRatio="xMidYMid meet">
<metadata>
Created by potrace 1.15, written by Peter Selinger 2001-2017
</metadata>
<g transform="translate(0.000000,1252.000000) scale(0.100000,-0.100000)"
fill="#000000" stroke="none">
<path d="M5863 12506 c-133 -34 -302 -141 -391 -249 -80 -98 -153 -269 -181
-422 -6 -33 -22 -149 -36 -257 -23 -188 -24 -207 -14 -450 6 -139 11 -417 13
-618 2 -246 7 -385 16 -427 12 -59 11 -63 -20 -144 -58 -150 -60 -179 -60
-752 0 -543 4 -601 44 -662 21 -32 41 -32 217 1 76 15 145 24 154 20 31 -11
29 -36 -6 -66 -27 -22 -31 -31 -22 -41 9 -9 25 -9 62 -2 52 10 81 2 81 -22 0
-21 -37 -41 -99 -54 -172 -36 -287 -181 -310 -393 -38 -339 183 -861 406 -960
63 -28 165 -28 218 0 44 22 171 149 228 228 20 28 54 89 76 135 91 191 154
682 102 794 -10 22 -29 50 -42 62 -34 31 -130 73 -189 82 -61 10 -90 33 -74
59 15 24 54 26 126 6 93 -26 113 -23 160 22 54 53 85 118 118 249 58 230 79
422 61 575 -5 52 -15 187 -21 300 -6 113 -13 224 -16 247 -9 71 -24 81 -154
99 -94 14 -168 15 -408 11 -282 -6 -293 -6 -312 13 -44 44 -15 88 75 116 43
14 61 26 76 51 32 51 61 69 182 110 109 37 115 38 237 35 200 -4 285 5 321 35
36 30 36 37 4 275 -17 130 -18 160 -4 545 17 501 18 850 0 958 -18 115 -48
222 -78 277 -49 89 -152 167 -272 204 -66 21 -206 26 -268 10z"/>
<path d="M2803 12336 c-91 -21 -179 -71 -254 -146 -126 -125 -154 -208 -146
-425 10 -260 78 -611 196 -1010 27 -93 55 -190 61 -214 18 -69 47 -91 122 -91
35 0 96 9 136 20 40 11 77 18 83 15 19 -12 8 -44 -37 -110 -51 -74 -74 -123
-74 -157 -1 -13 -26 -52 -60 -92 -82 -95 -100 -136 -100 -223 0 -109 23 -219
99 -463 38 -124 104 -349 146 -500 110 -394 124 -438 157 -505 62 -122 102
-153 183 -141 42 7 45 6 45 -16 0 -12 -22 -61 -49 -108 -70 -122 -75 -144 -67
-274 9 -132 27 -236 54 -303 11 -26 30 -80 42 -120 24 -79 157 -346 206 -416
108 -152 411 -150 577 2 117 108 195 390 183 661 -8 197 -78 504 -136 598 -45
73 -127 90 -243 51 -54 -18 -110 -46 -354 -180 -61 -34 -79 -36 -92 -11 -21
39 63 139 179 216 262 173 292 188 400 195 71 5 85 9 88 24 5 25 -14 45 -57
58 -34 10 -50 7 -162 -31 -68 -23 -146 -54 -174 -68 -238 -120 -287 -107 -147
38 58 60 75 71 127 85 172 47 261 80 289 107 26 27 28 32 20 76 -4 26 -7 151
-5 277 4 313 -20 527 -85 760 -80 287 -176 400 -354 412 -88 7 -145 -13 -412
-144 -183 -90 -219 -104 -232 -93 -25 20 -19 36 31 79 68 60 171 107 309 141
127 31 214 63 214 78 0 5 -6 15 -14 21 -19 16 -210 -4 -286 -29 -48 -17 -57
-17 -70 -4 -23 22 -3 45 71 81 108 53 167 65 299 57 92 -5 118 -3 127 7 6 8
20 61 32 118 36 166 28 429 -20 719 -55 332 -193 680 -323 815 -134 138 -343
204 -523 163z"/>
<path d="M8559 11909 c-59 -14 -249 -116 -307 -166 -60 -52 -138 -157 -187
-253 -41 -81 -80 -210 -186 -615 -49 -186 -86 -432 -109 -725 -6 -77 -22 -178
-36 -235 -15 -55 -27 -128 -28 -163 -1 -80 15 -96 84 -86 78 12 262 7 334 -9
79 -18 95 -29 76 -52 -10 -12 -36 -15 -130 -15 -65 0 -125 -3 -134 -6 -35 -13
-16 -43 57 -86 113 -68 101 -108 -33 -108 -32 0 -92 7 -133 16 -90 18 -176 16
-188 -6 -20 -37 -71 -186 -85 -248 -8 -37 -37 -143 -64 -237 -99 -344 -186
-719 -174 -750 8 -20 45 -35 89 -35 40 0 81 -30 72 -53 -9 -23 -72 -53 -142
-67 -90 -18 -95 -22 -92 -79 2 -42 -3 -55 -31 -93 -62 -82 -89 -156 -157 -442
-74 -308 -88 -423 -65 -538 34 -176 164 -298 315 -298 70 0 187 29 248 60 93
49 179 149 258 301 30 56 70 120 91 144 20 23 53 75 73 116 19 41 45 90 58
109 18 28 22 49 21 105 -1 99 -29 149 -143 253 -57 52 -101 102 -118 135 -25
47 -37 56 -116 97 -48 25 -95 54 -105 64 -16 16 -16 18 3 32 44 33 89 38 146
16 30 -11 104 -30 164 -41 129 -26 192 -45 257 -77 26 -13 54 -24 62 -24 16 0
127 163 173 253 71 141 118 323 159 614 34 244 35 241 -80 328 -85 64 -117 99
-109 121 11 29 42 17 135 -52 34 -25 65 -41 74 -37 29 11 33 37 14 80 -20 44
-48 66 -165 130 -50 28 -70 44 -70 58 0 27 37 23 181 -17 130 -36 172 -33 215
13 46 49 62 115 54 222 -5 61 -1 143 9 242 13 125 41 408 60 607 6 63 25 96
91 158 64 62 88 116 110 253 8 51 25 139 38 197 28 133 30 382 4 500 -48 213
-201 361 -402 390 -80 11 -87 11 -136 -1z"/>
<path d="M287 10369 c-100 -23 -203 -104 -246 -191 -66 -137 -51 -392 40 -675
50 -155 98 -275 125 -310 60 -79 144 -84 330 -18 132 47 154 47 154 4 0 -46
-130 -122 -240 -141 -40 -7 -75 -18 -77 -25 -9 -24 7 -63 43 -103 54 -60 82
-55 145 26 31 40 48 54 63 52 34 -5 30 -36 -9 -79 -20 -23 -44 -57 -52 -77
-18 -44 -20 -146 -3 -227 20 -102 111 -396 149 -485 76 -176 208 -343 365
-462 116 -88 193 -122 261 -116 47 4 68 14 146 66 50 34 101 65 114 68 33 8
59 1 63 -17 4 -21 -82 -116 -127 -139 -20 -10 -49 -32 -66 -50 -26 -27 -30
-39 -30 -88 0 -52 8 -73 77 -212 167 -334 408 -717 522 -832 63 -63 89 -73
191 -73 78 0 98 4 152 29 73 33 143 103 176 173 19 42 22 63 21 178 -1 153
-28 271 -114 500 -106 286 -238 515 -415 720 -115 133 -157 206 -196 340 -70
246 -260 542 -536 839 -149 159 -188 232 -348 646 -159 412 -239 549 -363 628
-87 56 -211 76 -315 51z"/>
<path d="M5336 6659 c-108 -16 -198 -52 -433 -171 -288 -147 -433 -199 -573
-205 -88 -5 -102 -3 -190 28 -95 33 -96 33 -320 37 -249 4 -311 -2 -455 -50
-223 -74 -619 -295 -754 -421 -18 -18 -58 -70 -88 -115 -30 -46 -89 -126 -132
-177 -210 -254 -337 -510 -376 -758 -46 -294 -62 -546 -42 -642 12 -55 13 -90
5 -165 -18 -180 -1 -316 77 -640 30 -124 80 -337 110 -475 31 -137 65 -281 75
-320 25 -93 140 -650 185 -895 61 -333 121 -534 226 -759 198 -423 583 -703
1094 -797 137 -25 381 -29 566 -10 264 28 326 52 444 171 61 62 104 95 181
138 184 103 411 197 474 197 32 0 54 -28 44 -53 -3 -9 -32 -38 -65 -67 -60
-52 -76 -82 -64 -119 4 -15 18 -21 53 -26 26 -4 121 -20 212 -37 281 -52 410
-62 410 -32 0 3 -27 49 -60 103 -226 368 -261 667 -150 1276 18 93 36 177 41
187 11 21 49 24 67 6 20 -20 14 -73 -18 -152 -130 -329 -114 -707 43 -1021 63
-126 133 -222 236 -325 181 -180 392 -296 633 -347 115 -24 388 -24 512 0 257
52 468 158 617 310 76 78 187 223 271 352 135 209 521 859 560 943 103 222
156 441 165 677 11 307 -8 353 -266 645 -128 144 -146 176 -135 228 5 21 9
100 9 177 l0 141 50 99 c49 98 50 102 50 190 0 126 -34 198 -148 310 -128 126
-222 163 -443 172 -145 6 -304 -7 -459 -38 -66 -14 -170 -23 -305 -29 -164 -6
-221 -13 -285 -30 -101 -29 -157 -35 -184 -21 -12 7 -34 38 -51 71 -31 62 -61
90 -95 90 -12 0 -58 -18 -103 -39 -117 -57 -423 -241 -430 -259 -8 -22 31 -49
106 -72 65 -20 127 -28 380 -50 169 -14 245 -31 414 -94 183 -68 220 -87 283
-147 29 -27 61 -49 73 -49 23 0 52 -34 52 -62 0 -18 -28 -38 -53 -38 -8 0 -59
32 -113 71 -107 76 -223 136 -377 193 -104 38 -345 79 -662 111 -82 8 -181 20
-218 26 -85 14 -108 8 -160 -40 -72 -66 -137 -92 -317 -126 -244 -47 -433
-188 -861 -645 -165 -176 -206 -228 -245 -315 -26 -56 -54 -73 -54 -32 0 23
113 223 189 336 67 98 296 333 467 477 44 38 122 104 173 147 108 92 178 174
161 191 -6 6 -41 10 -78 10 -52 -1 -111 -16 -262 -64 -389 -123 -506 -140
-820 -122 -194 11 -243 22 -313 68 -36 24 -43 52 -8 39 51 -20 225 -46 351
-51 157 -7 395 8 496 31 74 17 170 61 178 81 3 9 -5 26 -20 41 l-26 26 -150
-7 c-120 -6 -149 -5 -146 5 6 18 82 36 212 49 61 7 114 14 117 16 4 2 69 8
145 14 77 5 174 17 218 25 56 11 131 14 265 13 l186 -2 196 66 c213 73 483
177 617 239 114 52 291 159 309 185 33 50 -31 93 -156 105 -47 5 -129 13 -181
18 -123 14 -313 13 -470 -1 -69 -6 -154 -10 -190 -9 -36 1 -117 -5 -180 -14
-63 -9 -189 -24 -280 -35 -91 -11 -187 -24 -215 -29 -27 -5 -94 -15 -149 -21
-54 -6 -139 -22 -190 -36 -50 -13 -110 -24 -132 -24 -50 0 -230 -40 -339 -76
-70 -23 -106 -27 -280 -34 -463 -20 -711 -69 -1015 -203 -132 -57 -140 -63
-140 -88 0 -27 24 -36 143 -48 93 -10 140 -9 330 8 122 12 253 26 290 33 48 8
71 8 78 1 15 -15 -26 -35 -137 -67 -218 -63 -472 -86 -746 -68 -128 8 -154 13
-202 36 -64 31 -101 81 -101 138 0 45 23 71 90 106 46 24 58 26 160 24 91 -2
127 2 205 23 52 14 149 37 215 50 66 14 185 43 265 65 209 57 259 63 510 65
232 1 224 0 440 54 19 4 73 20 120 35 176 54 713 166 920 192 63 8 144 14 181
14 36 0 91 5 120 10 55 11 184 6 769 -25 248 -13 313 -22 393 -54 16 -6 42
-11 58 -11 16 0 52 -11 79 -25 27 -14 56 -25 65 -25 24 0 190 86 282 146 90
58 225 181 278 255 57 76 114 202 141 306 23 88 25 112 21 238 -5 154 -28 245
-89 355 -115 206 -274 320 -687 490 -201 83 -269 100 -401 100 -157 0 -168
-21 -83 -159 36 -57 44 -77 36 -90 -17 -27 -39 -24 -95 13 -56 37 -346 158
-482 201 -43 14 -133 36 -201 50 -68 13 -170 42 -228 64 -90 35 -208 64 -242
60 -5 -1 -37 -5 -69 -10z m1118 -1139 c8 -142 21 -222 46 -270 22 -43 131
-148 185 -179 81 -46 131 -141 93 -179 -22 -22 -50 -13 -117 38 -138 102 -209
200 -234 322 -18 94 -55 90 -113 -11 -39 -67 -82 -110 -139 -137 -95 -45 -111
-27 -34 38 68 57 130 153 219 340 41 87 78 158 81 158 3 0 9 -54 13 -120z
m-1591 -98 c9 -9 27 -54 41 -98 14 -45 39 -98 56 -120 64 -82 91 -131 110
-195 24 -81 25 -107 3 -131 -49 -54 -127 5 -203 153 -62 120 -83 206 -74 304
9 102 30 129 67 87z m-1110 -117 c9 -86 45 -188 95 -273 22 -37 45 -88 52
-114 11 -41 10 -51 -4 -73 -24 -36 -75 -34 -120 5 -36 32 -79 123 -111 234
-36 125 7 307 70 292 6 -2 13 -33 18 -71z"/>
<path d="M11658 4909 c-141 -20 -322 -83 -427 -148 -146 -90 -274 -220 -318
-321 -55 -129 -65 -142 -160 -205 -110 -73 -157 -111 -297 -240 -329 -301
-433 -384 -589 -465 -102 -53 -190 -84 -287 -100 -158 -27 -288 -96 -392 -208
-63 -69 -100 -137 -124 -232 -36 -143 0 -441 72 -587 33 -69 103 -129 170
-149 93 -27 130 -10 290 129 106 92 279 206 449 296 248 130 288 155 353 215
70 65 106 127 123 208 6 29 19 65 30 80 10 15 19 32 19 38 0 5 6 10 14 10 9 0
20 -35 34 -114 24 -126 67 -284 84 -303 21 -25 54 -14 98 33 24 26 62 55 84
65 40 17 516 163 849 260 239 70 294 95 474 221 213 149 256 184 339 269 253
264 318 563 184 836 -108 220 -335 359 -665 408 -109 16 -312 18 -407 4z"/>
<path d="M7814 4706 c-17 -8 -52 -30 -77 -49 -60 -46 -90 -54 -223 -61 -160
-9 -255 -40 -333 -111 -56 -51 -104 -68 -181 -65 -118 5 -139 2 -182 -22 -73
-40 -64 -97 24 -147 76 -43 109 -46 208 -16 180 55 260 69 390 70 l125 1 180
67 c213 79 225 88 225 179 0 73 -28 130 -76 153 -38 18 -40 18 -80 1z"/>
</g>
</svg>

